<svg height="320" version="1.1" width="320" xmlns="http://www.w3.org/2000/svg" xmlns:xlink="http://www.w3.org/1999/xlink" style="overflow: hidden; position: relative; left: -0.5px; top: -0.796875px;" viewBox="0 0 320 320" preserveAspectRatio="xMidYMid meet" id="main_svg"><svg height="320" version="1.1" width="320" xmlns="http://www.w3.org/2000/svg" xmlns:xlink="http://www.w3.org/1999/xlink" style="overflow: hidden; position: relative;" viewBox="0 0 16 16" preserveAspectRatio="xMidYMid meet" id="imported_svg_layer_1"><path fill="#3b4d3f" stroke="none" d="M8,0L0,16H16ZM8,4.5L12.8,14H3.2Z" stroke-width="0" opacity="1" fill-opacity="1" transform="matrix(1,0,0,1,0,0)" style="-webkit-tap-highlight-color: rgba(0, 0, 0, 0); opacity: 1; fill-opacity: 1;"></path><desc style="-webkit-tap-highlight-color: rgba(0, 0, 0, 0);">Created with Logotizer</desc><defs style="-webkit-tap-highlight-color: rgba(0, 0, 0, 0);"><linearGradient id="gradient_imvaanwpqpfhqzi64yo9id" x1="1.8369701987210297e-16" y1="0" x2="0" y2="1" style="-webkit-tap-highlight-color: rgba(0, 0, 0, 0);"><stop offset="0%" stop-color="#d1c5ea" stop-opacity="1" style="-webkit-tap-highlight-color: rgba(0, 0, 0, 0);"></stop><stop offset="100%" stop-color="#002c83" stop-opacity="1" style="-webkit-tap-highlight-color: rgba(0, 0, 0, 0);"></stop></linearGradient></defs></svg><svg height="320" version="1.1" width="320" xmlns="http://www.w3.org/2000/svg" xmlns:xlink="http://www.w3.org/1999/xlink" style="overflow: hidden; position: relative;" viewBox="0 0 160 160" preserveAspectRatio="xMidYMid meet" id="imported_svg_layer_2"><desc style="-webkit-tap-highlight-color: rgba(0, 0, 0, 0);">Created with Logotizer</desc><defs style="-webkit-tap-highlight-color: rgba(0, 0, 0, 0);"></defs><path fill="#ffffff" stroke="#d5d5d5" d="M160,90L80,20L0,90H40V160H120V90H160" stroke-width="2" transform="matrix(1,0,0,1,0,0)" style="-webkit-tap-highlight-color: rgba(0, 0, 0, 0); cursor: move; display: none;"></path></svg><desc style="-webkit-tap-highlight-color: rgba(0, 0, 0, 0);">Created with Logotizer</desc><defs style="-webkit-tap-highlight-color: rgba(0, 0, 0, 0);"></defs><path fill="#000000" stroke="none" d="M-531.64,0L-531.64,-165.59L-510.78,-165.59L-510.78,-113.79Q-510.78,-104.18,-512.19,-94.8L-492.03,-94.8L-441.64,-165.59L-418.55,-165.59L-466.84,-96.91Q-469.77,-92.58,-475.98,-86.37L-475.98,-85.9Q-469.3,-79.57,-465.66,-74.41L-415.27,0L-438.95,0L-491.8,-77.81L-512.19,-77.81Q-510.78,-68.91,-510.78,-60.23L-510.78,0L-531.64,0ZM-389.84,0L-389.84,-165.59L-368.75,-165.59L-368.75,-97.73L-292.34,-97.73L-292.34,-165.59L-271.25,-165.59L-271.25,0L-292.34,0L-292.34,-79.45L-368.75,-79.45L-368.75,0L-389.84,0ZM-229.53,0L-229.53,-165.59L-208.44,-165.59L-208.44,0L-229.53,0ZM-176.09,0L-176.09,-18.05L-87.97,-147.66L-174.57,-147.66L-174.57,-165.59L-64.65,-165.59L-64.65,-147.66L-152.54,-18.05L-63.01,-18.05L-63.01,0L-176.09,0ZM-49.41,0L3.91,-159.84Q5.43,-165.59,11.88,-165.59L33.91,-165.59Q40.35,-165.59,41.88,-159.84L95.08,0L73.28,0L56.99,-51.8L-11.21,-51.8L-27.5,0L-49.41,0M-5.47,-70.08L51.25,-70.08L30.27,-135.82Q28.16,-142.15,26.29,-149.3L19.49,-149.3Q18.2,-144.38,15.39,-135.82L-5.47,-70.08ZM116.17,-63.4L116.17,-165.59L137.27,-165.59L137.27,-63.4Q137.27,-36.8,145.94,-26.31Q154.61,-15.82,176.41,-15.82Q198.09,-15.82,206.82,-26.37Q215.55,-36.91,215.55,-63.4L215.55,-165.59L236.64,-165.59L236.64,-63.4Q236.64,-27.19,223.22,-12.01Q209.8,3.16,177.34,3.16Q143.83,3.16,130,-12.01Q116.17,-27.19,116.17,-63.4ZM261.95,-146.84L261.95,-165.59L389.92,-165.59L389.92,-146.84L336.37,-146.84L336.37,0L315.27,0L315.27,-146.84L261.95,-146.84ZM406.8,-82.85Q406.8,-115.55,413.24,-134.12Q419.69,-152.7,433.69,-160.72Q447.7,-168.75,472.3,-168.75Q487.07,-168.75,497.68,-166Q508.28,-163.24,516.07,-157.21Q523.87,-151.17,528.5,-141.04Q533.13,-130.9,535.35,-116.72Q537.58,-102.54,537.58,-82.85Q537.58,-58.24,534.24,-42.01Q530.9,-25.78,522.99,-15.59Q515.08,-5.39,502.95,-1.11Q490.82,3.16,472.3,3.16Q453.79,3.16,441.6,-1.11Q429.41,-5.39,421.5,-15.59Q413.59,-25.78,410.2,-42.01Q406.8,-58.24,406.8,-82.85M433.11,-122.93Q433.11,-122.93,431.08,-115.78Q429.06,-108.63,429.06,-82.85Q429.06,-57.07,433.11,-42.77Q437.15,-28.48,446.41,-22.15Q455.66,-15.82,472.3,-15.82Q488.95,-15.82,498.2,-22.15Q507.46,-28.48,511.5,-42.77Q515.55,-57.07,515.55,-82.85Q515.55,-108.63,511.5,-122.93Q507.46,-137.23,498.2,-143.5Q488.95,-149.77,472.3,-149.77Q455.66,-149.77,446.41,-143.5Q437.15,-137.23,433.11,-122.93Z" transform="matrix(0.2,0,0,0.2,119,279.593)" style="-webkit-tap-highlight-color: rgba(0, 0, 0, 0);"></path></svg>